<?xml version="1.0" encoding="UTF-8"?><svg id="a" xmlns="http://www.w3.org/2000/svg" xmlns:xlink="http://www.w3.org/1999/xlink" viewBox="0 0 249.87 54.69"><defs><style>.e{clip-path:url(#c);}.f{clip-path:url(#d);}.g{fill:none;}</style><clipPath id="c"><rect class="g" y="0" width="249.87" height="54.69"/></clipPath><clipPath id="d"><rect class="g" width="249.87" height="54.69"/></clipPath></defs><g id="b"><g class="e"><polygon points="38.84 .4 23.76 37.24 8.88 .4 0 .4 23.59 54.5 47.72 .4 38.84 .4"/><rect x="54.99" y=".4" width="8.12" height="53.79"/><path d="M96.91,17.58l7.98,17.18h-16.34l8.36-17.18Zm-26.48,36.61h8.74l6-12.27h23.03l5.64,12.27h8.88L97.05,.5l-26.62,53.69Z"/><polygon points="187.12 0 157.92 39.19 128.16 0 128.16 54.22 136.53 54.22 136.44 23.75 157.78 54.69 178.8 23.78 178.9 54.22 187.12 54.22 187.12 0"/><g class="f"><path d="M193.64,27.28c0-7.33,2.78-13.63,8.33-18.89,5.53-5.26,12.17-7.89,19.93-7.89s14.24,2.65,19.72,7.96c5.5,5.31,8.26,11.69,8.26,19.12s-2.77,13.84-8.29,19.05c-5.55,5.24-12.25,7.86-20.11,7.86-6.94,0-13.18-2.33-18.7-6.99-6.09-5.14-9.13-11.89-9.13-20.23m8.19,.08c0,5.75,2,10.48,5.99,14.19,3.98,3.71,8.56,5.56,13.77,5.56,5.64,0,10.4-1.89,14.28-5.66,3.88-3.82,5.82-8.47,5.82-13.95s-1.91-10.2-5.74-13.96c-3.81-3.77-8.52-5.66-14.15-5.66s-10.32,1.89-14.18,5.66c-3.86,3.73-5.79,8.34-5.79,13.82"/></g></g></g></svg>